<?xml version="1.0" encoding="utf-8"?>
<!-- Generator: Adobe Illustrator 16.0.0, SVG Export Plug-In . SVG Version: 6.00 Build 0)  -->
<!DOCTYPE svg PUBLIC "-//W3C//DTD SVG 1.1//EN" "http://www.w3.org/Graphics/SVG/1.1/DTD/svg11.dtd">
<svg version="1.1" id="Layer_1" xmlns="http://www.w3.org/2000/svg" xmlns:xlink="http://www.w3.org/1999/xlink" x="0px" y="0px"
	 width="163.396px" height="173.443px" viewBox="0 0 163.396 173.443" enable-background="new 0 0 163.396 173.443"
	 xml:space="preserve">
<g>
	<g>
		<rect x="45.931" y="18.519" fill="#03435B" width="4.875" height="18.744"/>
		<rect x="112.591" y="18.519" fill="#03435B" width="4.875" height="18.744"/>
	</g>
	<rect x="12.216" y="62.706" fill="#FF4612" width="138.964" height="103.45"/>
	<g>
		<path fill="#9C1C1F" d="M7.968,59.396v8.05c0,3.711,3,6.717,6.702,6.717c3.703,0,6.706-3.006,6.706-6.717v-8.05H7.968z"/>
		<path fill="#BBBFC3" d="M21.375,59.396v8.05c0,3.711,3,6.717,6.702,6.717c3.7,0,6.703-3.006,6.703-6.717v-8.05H21.375z"/>
		<path fill="#9C1C1F" d="M34.78,59.396v8.05c0,3.711,3,6.717,6.703,6.717c3.7,0,6.702-3.006,6.702-6.717v-8.05H34.78z"/>
		<path fill="#BBBFC3" d="M48.185,59.396v8.05c0,3.711,3,6.717,6.703,6.717c3.702,0,6.703-3.006,6.703-6.717v-8.05H48.185z"/>
		<path fill="#9C1C1F" d="M61.59,59.396v8.05c0,3.711,3,6.717,6.702,6.717c3.702,0,6.704-3.006,6.704-6.717v-8.05H61.59z"/>
		<path fill="#BBBFC3" d="M74.996,59.396v8.05c0,3.711,3,6.717,6.702,6.717c3.702,0,6.703-3.006,6.703-6.717v-8.05H74.996z"/>
		<path fill="#9C1C1F" d="M88.4,59.396v8.05c0,3.711,3.001,6.717,6.702,6.717s6.703-3.006,6.703-6.717v-8.05H88.4z"/>
		<path fill="#BBBFC3" d="M101.806,59.396v8.05c0,3.711,3,6.717,6.702,6.717c3.701,0,6.703-3.006,6.703-6.717v-8.05H101.806z"/>
		<path fill="#9C1C1F" d="M115.211,59.396v8.05c0,3.711,3.001,6.717,6.703,6.717c3.701,0,6.701-3.006,6.701-6.717v-8.05H115.211z"/>
		<path fill="#BBBFC3" d="M128.615,59.396v8.05c0,3.711,3.001,6.717,6.702,6.717c3.702,0,6.705-3.006,6.705-6.717v-8.05H128.615z"/>
		<path fill="#9C1C1F" d="M142.022,59.396v8.05c0,3.711,2.999,6.717,6.703,6.717c3.699,0,6.7-3.006,6.7-6.717v-8.05H142.022z"/>
		<polygon fill="#FF4612" points="24.854,34.385 7.968,59.391 21.375,59.391 35.94,34.385 		"/>
		<polygon fill="#EAE9EB" points="35.94,34.385 21.375,59.391 34.78,59.391 46.445,34.385 		"/>
		<polygon fill="#FF4612" points="45.865,34.385 34.78,59.391 48.185,59.391 57.529,34.385 		"/>
		<polygon fill="#EAE9EB" points="57.529,34.385 48.185,59.391 61.59,59.391 66.317,34.385 		"/>
		<polygon fill="#FF4612" points="66.317,34.385 61.59,59.391 74.996,59.391 76.213,34.385 		"/>
		<polygon fill="#EAE9EB" points="76.213,34.385 74.996,59.391 88.4,59.391 86.496,34.385 		"/>
		<polygon fill="#FF4612" points="86.516,34.385 88.4,59.391 101.806,59.391 96.688,34.385 		"/>
		<polygon fill="#EAE9EB" points="96.688,34.385 101.806,59.391 115.211,59.391 106.923,34.385 		"/>
		<polygon fill="#FF4612" points="105.95,34.385 115.211,59.391 128.615,59.391 117.283,34.385 		"/>
		<polygon fill="#EAE9EB" points="117.283,34.385 128.615,59.391 142.022,59.391 129.171,34.385 		"/>
		<polygon fill="#FF4612" points="129.171,34.385 142.022,59.391 155.426,59.391 141.551,34.385 		"/>
	</g>
	<linearGradient id="SVGID_1_" gradientUnits="userSpaceOnUse" x1="89.21" y1="80.2407" x2="26.0572" y2="145.7473">
		<stop  offset="0" style="stop-color:#8FD3ED"/>
		<stop  offset="0.5054" style="stop-color:#FFFFFF"/>
		<stop  offset="1" style="stop-color:#8FD3ED"/>
	</linearGradient>
	
		<rect x="24.511" y="81.941" fill="url(#SVGID_1_)" stroke="#9C1C1F" stroke-width="1.4513" stroke-miterlimit="10" width="69.648" height="58.573"/>
	
		<rect x="105.436" y="107.584" fill="#C62026" stroke="#9C1C1F" stroke-width="2.1769" stroke-miterlimit="10" width="36.946" height="58.572"/>
	<rect y="165.129" fill="#9C1C1F" width="163.396" height="8.314"/>
	<rect x="12.216" y="158.454" fill="#9C1C1F" width="92.192" height="4.157"/>
	<rect x="12.216" y="152.244" fill="#9C1C1F" width="92.192" height="4.157"/>
	<g>
		<linearGradient id="SVGID_2_" gradientUnits="userSpaceOnUse" x1="104.4082" y1="86.9053" x2="121.4922" y2="86.9053">
			<stop  offset="0" style="stop-color:#8FD3ED"/>
			<stop  offset="0.5054" style="stop-color:#FFFFFF"/>
			<stop  offset="1" style="stop-color:#8FD3ED"/>
		</linearGradient>
		<path fill="url(#SVGID_2_)" stroke="#9C1C1F" stroke-width="0.5745" stroke-miterlimit="10" d="M121.492,93.538V80.272
			c-8.635,0.401-17.084,2.944-17.084,8.022v5.243H121.492z"/>
		<linearGradient id="SVGID_3_" gradientUnits="userSpaceOnUse" x1="126.3262" y1="86.9053" x2="143.4102" y2="86.9053">
			<stop  offset="0" style="stop-color:#8FD3ED"/>
			<stop  offset="0.5054" style="stop-color:#FFFFFF"/>
			<stop  offset="1" style="stop-color:#8FD3ED"/>
		</linearGradient>
		<path fill="url(#SVGID_3_)" stroke="#9C1C1F" stroke-width="0.5745" stroke-miterlimit="10" d="M126.326,93.538h17.084v-5.243
			c0-5.078-8.453-7.619-17.084-8.022V93.538z"/>
		<linearGradient id="SVGID_4_" gradientUnits="userSpaceOnUse" x1="126.3262" y1="100.0664" x2="143.4102" y2="100.0664">
			<stop  offset="0" style="stop-color:#8FD3ED"/>
			<stop  offset="0.5054" style="stop-color:#FFFFFF"/>
			<stop  offset="1" style="stop-color:#8FD3ED"/>
		</linearGradient>
		
			<rect x="126.326" y="95.548" fill="url(#SVGID_4_)" stroke="#9C1C1F" stroke-width="0.5745" stroke-miterlimit="10" width="17.084" height="9.036"/>
		<linearGradient id="SVGID_5_" gradientUnits="userSpaceOnUse" x1="104.4082" y1="100.0664" x2="121.4922" y2="100.0664">
			<stop  offset="0" style="stop-color:#8FD3ED"/>
			<stop  offset="0.5054" style="stop-color:#FFFFFF"/>
			<stop  offset="1" style="stop-color:#8FD3ED"/>
		</linearGradient>
		
			<rect x="104.408" y="95.548" fill="url(#SVGID_5_)" stroke="#9C1C1F" stroke-width="0.5745" stroke-miterlimit="10" width="17.084" height="9.036"/>
	</g>
	<circle fill="#BBBFC3" cx="110.673" cy="136.091" r="1.894"/>
	<rect x="34.78" fill="#FCBB1A" width="93.835" height="23.164"/>
</g>
</svg>
