<?xml version="1.0" encoding="utf-8"?>
<!-- Generator: Adobe Illustrator 16.0.0, SVG Export Plug-In . SVG Version: 6.00 Build 0)  -->
<!DOCTYPE svg PUBLIC "-//W3C//DTD SVG 1.1//EN" "http://www.w3.org/Graphics/SVG/1.1/DTD/svg11.dtd">
<svg version="1.1" id="Layer_1" xmlns="http://www.w3.org/2000/svg" xmlns:xlink="http://www.w3.org/1999/xlink" x="0px" y="0px"
	 width="137.811px" height="129.692px" viewBox="0 0 137.811 129.692" enable-background="new 0 0 137.811 129.692"
	 xml:space="preserve">
<g>
	<rect x="6.284" y="46.923" fill="#FCBB1A" width="125.887" height="77.213"/>
	<rect y="120.565" fill="#7A472A" width="137.811" height="9.127"/>
	<polygon fill="#BF8D31" points="115.628,6.352 22.18,6.352 0,46.923 137.811,46.923 	"/>
	<rect x="31.48" fill="#7A472A" width="14.687" height="24.693"/>
	<rect x="16.571" y="60.322" fill="#7A472A" width="37.311" height="68.116"/>
	<linearGradient id="SVGID_1_" gradientUnits="userSpaceOnUse" x1="45.4629" y1="62.5366" x2="24.4153" y2="82.1655">
		<stop  offset="0" style="stop-color:#8FD3ED"/>
		<stop  offset="0.5054" style="stop-color:#FFFFFF"/>
		<stop  offset="1" style="stop-color:#8FD3ED"/>
	</linearGradient>
	<rect x="22.724" y="64.427" fill="url(#SVGID_1_)" width="25.007" height="15.312"/>
	<circle fill="#FCBB1A" cx="24.368" cy="94.381" r="2.361"/>
	<g>
		<rect x="66.457" y="65.681" fill="#62696F" width="56.995" height="54.833"/>
		<rect x="66.457" y="69.598" fill="#889298" width="56.995" height="3.918"/>
		<rect x="66.457" y="77.432" fill="#889298" width="56.995" height="3.917"/>
		<rect x="66.457" y="85.265" fill="#889298" width="56.995" height="3.916"/>
		<rect x="66.457" y="93.099" fill="#889298" width="56.995" height="3.916"/>
		<rect x="66.457" y="100.931" fill="#889298" width="56.995" height="3.919"/>
		<rect x="66.457" y="108.765" fill="#889298" width="56.995" height="3.916"/>
		<rect x="66.457" y="116.599" fill="#889298" width="56.995" height="3.915"/>
	</g>
	<g>
		<defs>
			<rect id="SVGID_2_" x="6.284" y="46.923" width="125.887" height="77.213"/>
		</defs>
		<clipPath id="SVGID_3_">
			<use xlink:href="#SVGID_2_"  overflow="visible"/>
		</clipPath>
		<polygon clip-path="url(#SVGID_3_)" fill="#9F6026" points="115.628,10.675 22.18,10.675 0,51.245 137.811,51.245 		"/>
	</g>
</g>
</svg>
