<?xml version="1.0" encoding="utf-8"?>
<!-- Generator: Adobe Illustrator 16.0.0, SVG Export Plug-In . SVG Version: 6.00 Build 0)  -->
<!DOCTYPE svg PUBLIC "-//W3C//DTD SVG 1.1//EN" "http://www.w3.org/Graphics/SVG/1.1/DTD/svg11.dtd">
<svg version="1.1" id="Layer_1" xmlns="http://www.w3.org/2000/svg" xmlns:xlink="http://www.w3.org/1999/xlink" x="0px" y="0px"
	 width="196.859px" height="186.307px" viewBox="0 0 196.859 186.307" enable-background="new 0 0 196.859 186.307"
	 xml:space="preserve">
<g>
	<ellipse fill="#B8AAA0" cx="105.541" cy="183.75" rx="77.983" ry="2.557"/>
	<path opacity="0.7" fill="#F8F2E8" d="M135.062,17.571c0,0-28.395,6.012-32.395,58.679c0,0,48.83,15.629,84-8
		c0,0-5.995-41.436-32.922-46.382L135.062,17.571z"/>
	<path fill="#EABB98" d="M152.507,61.838c4.74-1.326,8.717-3.634,11.363-6.545c1.602-0.021,3.582-1.737,4.795-4.322
		c1.444-3.081,1.25-6.218-0.434-7.005c-0.388-0.183-0.822-0.218-1.277-0.136c-2.123-7.5-11.945-13.171-23.75-13.171
		c-10.541,0-19.501,4.524-22.811,10.834c-0.584-0.468-1.22-0.698-1.852-0.604c-1.84,0.271-2.943,3.129-2.462,6.383
		c0.479,3.255,2.358,5.674,4.199,5.403c0.104-0.016,0.206-0.042,0.306-0.073c2.278,4.039,6.9,7.3,12.748,9.059L102,114.916
		l31.666-42.69l17.234-2l26.434,40.69L152.507,61.838z"/>
	<path fill="#FFFFFF" d="M136.259,94.907l-3.594-24.682c0,0,6.656-3.254,9.066-3.297c2.674-0.047,10.168,3.297,10.168,3.297
		l-4.101,24.569L136.259,94.907z"/>
	<path fill="#352013" d="M154.265,21.279c2.631-3.09,13.625-17.417-5.466-20.843c-19.14-3.435-14.805,14.445-13.884,17.647
		c-21.478,2.294-16.889,25.49-16.889,25.49s15.936,1.374,24.178-12.915c0,0,5.084,15.525,24.317,16.624
		C166.522,47.283,169.394,29.015,154.265,21.279z"/>
	<ellipse fill="#352013" cx="132.64" cy="44.5" rx="2.138" ry="2.318"/>
	<ellipse fill="#352013" cx="150.783" cy="45.532" rx="2.138" ry="2.318"/>
	<path fill="#FFFFFF" d="M155.462,20.747c1.143-0.735,4.667-3.614,2.748-5.114c-1.507-1.179-5.436,2.122-5.223,3.419
		c0.027-1.678-0.551-5.521-2.839-4.222c-1.61,0.914-0.874,5.335,0.159,6.65c-1.159-1.874-5.729-1.671-6.104,0.272
		c-0.648,3.384,4.559,3.516,6.611,2.323c-1.382,1.631-3.459,4.329-1.46,5.751c0.196,0.139,2.206,0.152,2.456,0.019
		c0.646-0.345,1.227-1.346,1.471-2.283c0.189,1.554,0.9,3.338,2.31,3.177c2.87-0.327,1.845-5.756,0.782-7.019
		c1.407,1.285,4.037,1.111,4.431-0.706C161.48,19.909,157.41,19.411,155.462,20.747z"/>
	<path fill="#FFF8EA" d="M96,173.583c0,0,12.33-86.118,49.771-79.277c37.441,6.839,49.563,74.61,49.563,74.61
		S157.333,194.916,96,173.583z"/>
	<g>
		<path fill="#352013" d="M77.013,123.387l-5.534-35.924l31.188,26.119L72.067,63.625l-39.4,1.29L0,120.916l32.501-34.271
			l-6.237,35.681l6.814,0.127l7.23,51.336L28,182.916l18.667-1v-9.655c0,0,6.03-46.813,6.03-45.576s0,54.931,0,54.931l21.019-0.237
			l-12.382-7.462l10.904-50.743L77.013,123.387z"/>
		<polygon fill="#E2D4C0" points="39.006,60.129 54.211,106.455 63.735,59.305 		"/>
		<g>
			<path fill="#EABB98" d="M84.036,40.053c0.459-4.072-1.555-7.642-4.494-7.972c-1.185-0.133-2.336,0.285-3.323,1.092
				c-4.23-6.424-14.064-10.649-25.317-10.132c-12.074,0.558-22.022,6.405-24.975,13.934c-1.521-1.229-3.313-1.706-4.889-1.104
				c-2.765,1.054-3.825,5.012-2.364,8.839c1.46,3.829,4.885,6.078,7.65,5.023c0.425-0.161,0.803-0.399,1.144-0.687
				c4.352,6.228,14.039,10.29,25.083,9.78c11.19-0.516,20.549-5.571,24.216-12.3c0.352,0.15,0.723,0.254,1.111,0.299
				C80.821,47.156,83.576,44.125,84.036,40.053z"/>
			<g>
				
					<ellipse transform="matrix(0.9667 0.2558 -0.2558 0.9667 11.0077 -9.7386)" fill="#352013" cx="42.948" cy="37.455" rx="2.138" ry="2.318"/>
				
					<ellipse transform="matrix(0.9667 0.2558 -0.2558 0.9667 11.604 -14.4274)" fill="#352013" cx="61.268" cy="37.398" rx="2.138" ry="2.317"/>
			</g>
			<path fill="#352013" d="M25.216,40.224c0,0,5.786-13.817,24.207-15.766C67.844,22.51,79.19,40.86,79.19,40.86
				s4.5-27.178-27.065-39.494C52.125,1.366,15.052,15.793,25.216,40.224z"/>
		</g>
		<path fill="#675F5B" d="M39.859,59.917L29.574,65.16c0,0,8.55,32.627,24.212,40.87L39.859,59.917z"/>
		<path fill="#675F5B" d="M61.05,56.434l-6.838,50.021c0,0,15.734-23.458,19.855-42.829L61.05,56.434z"/>
		<polygon fill="#FFFFFF" points="51.493,58.694 37.64,51.91 39.091,69.553 51.702,62.046 64.856,69.571 64.642,52.002 		"/>
	</g>
	<g>
		<path fill="#FFFFFF" d="M179.361,120.707c0,0,2.717,9.428,7.671,13.264l2.716-1.439c0,0-8.948-10.066-9.428-13.263
			L179.361,120.707z"/>
		<path fill="#FFFFFF" d="M177.603,119.108l-1.598-1.438c-0.479,0-5.434,16.14,3.355,25.408l4.634-2.877
			C183.995,140.202,175.526,128.856,177.603,119.108z"/>
		<path fill="#FFFFFF" d="M194.313,102.995c3.649-2.904-3.394-3.682-5.291-3.44c1.056-0.135,0.485-3.094-0.063-3.528
			c-1.234-0.977-3.49-0.031-4.602,0.656c0.652-1.604,0.739-3.497-1.45-3.552c-2.215-0.054-3.81,2.291-4.774,3.962
			c0.057-1.523-0.325-3.75-2.35-3.394c-2.236,0.396-2.299,3.35-1.952,5.031c-0.449-1.438-1.374-3.529-3.138-2.294
			c-1.807,1.267-0.912,4.023-0.143,5.575c-1.132-0.521-3.394-1.591-4.465-0.438c-1.064,1.146,0.196,3.05,0.957,3.992
			c-2.083,1.585-3.135,4.227-0.147,5.392c-1.066,0.932-1.913,2.456-0.727,3.655c1.353,1.366,3.747,0.419,5.329,0.089
			c-1.695,1.209-2.85,3.994-0.281,4.948c1.754,0.651,4.043-0.212,5.331-1.411c-0.742,1.289-1.489,4.325,0.659,4.37
			c1.492,0.031,2.825-1.642,3.769-2.585c-0.382,1.379-0.472,4.047,1.513,4.205c1.848,0.148,2.979-2.622,3.512-3.979
			c3.121,3.163,4.482-0.938,5.053-3.8c0.731,2.358,3.433,1.392,4.367-0.325c1.241-2.277-0.551-5.399-1.619-7.408
			c1.516,0.689,2.754,0.378,3.02-1.386C197.103,105.453,195.766,103.942,194.313,102.995z"/>
	</g>
</g>
</svg>
