<?xml version="1.0" encoding="utf-8"?>
<!-- Generator: Adobe Illustrator 16.0.0, SVG Export Plug-In . SVG Version: 6.00 Build 0)  -->
<!DOCTYPE svg PUBLIC "-//W3C//DTD SVG 1.1//EN" "http://www.w3.org/Graphics/SVG/1.1/DTD/svg11.dtd">
<svg version="1.1" id="Layer_1" xmlns="http://www.w3.org/2000/svg" xmlns:xlink="http://www.w3.org/1999/xlink" x="0px" y="0px"
	 width="189.265px" height="186.105px" viewBox="0 0 189.265 186.105" enable-background="new 0 0 189.265 186.105"
	 xml:space="preserve">
<g>
	<ellipse fill="#B8AAA0" cx="77.983" cy="183.533" rx="77.983" ry="2.557"/>
	<path fill="#FFF8EA" d="M61.706,177.604c0,0,12.468-87.089,50.332-80.172c37.863,6.916,50.122,75.452,50.122,75.452
		S123.731,199.179,61.706,177.604z"/>
	<ellipse fill="#EABB98" cx="112.409" cy="48.463" rx="25.619" ry="20.9"/>
	<path fill="#352013" d="M135.688,36.818c10.937-10.051,6.209-23.657-9.122-26.11c-12.09-1.935-14.813,8.967-15.387,15.284
		c-4.543,0.654-9.724,2.386-15.625,5.615c0,0,9.438,28.991,26.293,35.732c0,0,20.9-3.372,18.877-20.226
		C140.724,47.114,139.353,42.033,135.688,36.818z"/>
	<path fill="#FFFFFF" d="M118.476,37.002c1.156-0.744,4.721-3.654,2.779-5.172c-1.523-1.192-5.496,2.146-5.281,3.458
		c0.027-1.696-0.557-5.583-2.871-4.27c-1.628,0.924-0.884,5.396,0.162,6.726c-1.174-1.896-5.794-1.69-6.173,0.275
		c-0.656,3.422,4.61,3.556,6.686,2.35c-1.397,1.649-3.497,4.378-1.477,5.816c0.198,0.14,2.231,0.154,2.484,0.018
		c0.653-0.349,1.239-1.361,1.486-2.309c0.191,1.571,0.911,3.375,2.336,3.213c2.903-0.332,1.866-5.822,0.791-7.099
		c1.423,1.3,4.083,1.125,4.48-0.713C124.562,36.154,120.446,35.651,118.476,37.002z"/>
	<path opacity="0.7" fill="#F8F2E8" d="M135.688,36.818l-17.212,0.184l23.597,66.744l47.192-20.899
		C189.265,82.847,163.012,37.31,135.688,36.818z"/>
	<path fill="#EABB98" d="M102.97,80.824c0,0-1.348-12.136,9.439-11.461c10.786,0.674,10.111,16.854,10.111,16.854L102.97,80.824z"/>
	<polygon fill="#FFFFFF" points="102.261,75.768 105.746,101.727 120.449,101.613 123.414,81.835 	"/>
	<polygon fill="#EABB98" points="112.407,74.757 78.024,111.837 119.15,78.801 	"/>
	<ellipse fill="#EABB98" cx="109.711" cy="54.193" rx="5.394" ry="7.079"/>
	<path fill="#352013" d="M25.393,124.275h31.732c0,0,3.378-74.437-14.832-73.958C16.673,50.992,25.393,124.275,25.393,124.275z"/>
	<path fill="#675F5B" d="M39.595,48.295c-4.044,0-11.46,4.719-11.46,4.719l28.99,49.429l-0.674-49.429L39.595,48.295z"/>
	<polygon fill="#352013" points="33.528,61.104 79.036,112.848 36.562,92.251 	"/>
	<g>
		
			<ellipse transform="matrix(0.9889 0.1484 -0.1484 0.9889 4.8443 -5.8963)" fill="#EABB98" cx="41.926" cy="29.507" rx="25.619" ry="20.9"/>
		<path fill="#352013" d="M29.022,47.34l9.401-8.133l23.605-21l7.902-11.767c0,0-43.299-20.251-53.473,11.063
			C8.855,40.905,29.022,47.34,29.022,47.34z"/>
		<circle fill="#EABB98" cx="43.759" cy="33.191" r="7.079"/>
	</g>
	<polygon fill="#FFFFFF" points="52.357,50.143 36.854,48.424 44.269,64.718 53.703,53.261 68.795,55.924 62.583,39.278 	"/>
	<path fill="#352013" d="M29.426,121.275c0,0,6.821,33.372,10.192,61.014l21.574-0.674l-11.461-6.405l6.382-53.935H29.426z"/>
</g>
</svg>
